<mxfile host="app.diagrams.net" agent="Mozilla/5.0 (Windows NT 10.0; Win64; x64) AppleWebKit/537.36 (KHTML, like Gecko) Chrome/128.0.0.0 Safari/537.36" version="24.7.10">
  <diagram name="Page-1" id="Fdg6cZRIb0wfF-FGugta">
    <mxGraphModel dx="880" dy="444" grid="1" gridSize="10" guides="1" tooltips="1" connect="1" arrows="1" fold="1" page="1" pageScale="1" pageWidth="827" pageHeight="1169" math="0" shadow="0">
      <root>
        <mxCell id="0" />
        <mxCell id="1" parent="0" />
        <mxCell id="0HZGXbvApNloy6HzlEJo-17" style="rounded=0;orthogonalLoop=1;jettySize=auto;html=1;exitX=1;exitY=0.5;exitDx=0;exitDy=0;entryX=0;entryY=0.5;entryDx=0;entryDy=0;" edge="1" parent="1" source="0HZGXbvApNloy6HzlEJo-1" target="0HZGXbvApNloy6HzlEJo-12">
          <mxGeometry relative="1" as="geometry" />
        </mxCell>
        <mxCell id="0HZGXbvApNloy6HzlEJo-1" value="" style="ellipse;whiteSpace=wrap;html=1;aspect=fixed;" vertex="1" parent="1">
          <mxGeometry x="180" y="120" width="50" height="50" as="geometry" />
        </mxCell>
        <mxCell id="0HZGXbvApNloy6HzlEJo-22" style="rounded=0;orthogonalLoop=1;jettySize=auto;html=1;exitX=1;exitY=0.5;exitDx=0;exitDy=0;entryX=0;entryY=0.5;entryDx=0;entryDy=0;" edge="1" parent="1" source="0HZGXbvApNloy6HzlEJo-2" target="0HZGXbvApNloy6HzlEJo-12">
          <mxGeometry relative="1" as="geometry" />
        </mxCell>
        <mxCell id="0HZGXbvApNloy6HzlEJo-2" value="" style="ellipse;whiteSpace=wrap;html=1;aspect=fixed;" vertex="1" parent="1">
          <mxGeometry x="180" y="200" width="50" height="50" as="geometry" />
        </mxCell>
        <mxCell id="0HZGXbvApNloy6HzlEJo-24" style="rounded=0;orthogonalLoop=1;jettySize=auto;html=1;exitX=1;exitY=0.5;exitDx=0;exitDy=0;entryX=0;entryY=0.5;entryDx=0;entryDy=0;" edge="1" parent="1" source="0HZGXbvApNloy6HzlEJo-3" target="0HZGXbvApNloy6HzlEJo-12">
          <mxGeometry relative="1" as="geometry" />
        </mxCell>
        <mxCell id="0HZGXbvApNloy6HzlEJo-28" style="rounded=0;orthogonalLoop=1;jettySize=auto;html=1;exitX=1;exitY=0.5;exitDx=0;exitDy=0;" edge="1" parent="1" source="0HZGXbvApNloy6HzlEJo-3">
          <mxGeometry relative="1" as="geometry">
            <mxPoint x="350" y="280" as="targetPoint" />
          </mxGeometry>
        </mxCell>
        <mxCell id="0HZGXbvApNloy6HzlEJo-3" value="" style="ellipse;whiteSpace=wrap;html=1;aspect=fixed;" vertex="1" parent="1">
          <mxGeometry x="180" y="280" width="50" height="50" as="geometry" />
        </mxCell>
        <mxCell id="0HZGXbvApNloy6HzlEJo-20" style="rounded=0;orthogonalLoop=1;jettySize=auto;html=1;" edge="1" parent="1" source="0HZGXbvApNloy6HzlEJo-4">
          <mxGeometry relative="1" as="geometry">
            <mxPoint x="350" y="385" as="targetPoint" />
          </mxGeometry>
        </mxCell>
        <mxCell id="0HZGXbvApNloy6HzlEJo-25" style="rounded=0;orthogonalLoop=1;jettySize=auto;html=1;exitX=1;exitY=0.5;exitDx=0;exitDy=0;" edge="1" parent="1" source="0HZGXbvApNloy6HzlEJo-4">
          <mxGeometry relative="1" as="geometry">
            <mxPoint x="350" y="210" as="targetPoint" />
          </mxGeometry>
        </mxCell>
        <mxCell id="0HZGXbvApNloy6HzlEJo-4" value="" style="ellipse;whiteSpace=wrap;html=1;aspect=fixed;" vertex="1" parent="1">
          <mxGeometry x="180" y="360" width="50" height="50" as="geometry" />
        </mxCell>
        <mxCell id="0HZGXbvApNloy6HzlEJo-7" value="" style="endArrow=none;dashed=1;html=1;rounded=0;fontStyle=1;shadow=0;strokeWidth=2;" edge="1" parent="1">
          <mxGeometry width="50" height="50" relative="1" as="geometry">
            <mxPoint x="205" y="460" as="sourcePoint" />
            <mxPoint x="204.5" y="410" as="targetPoint" />
          </mxGeometry>
        </mxCell>
        <mxCell id="0HZGXbvApNloy6HzlEJo-26" style="rounded=0;orthogonalLoop=1;jettySize=auto;html=1;exitX=1;exitY=0;exitDx=0;exitDy=0;" edge="1" parent="1" source="0HZGXbvApNloy6HzlEJo-8">
          <mxGeometry relative="1" as="geometry">
            <mxPoint x="350" y="210" as="targetPoint" />
          </mxGeometry>
        </mxCell>
        <mxCell id="0HZGXbvApNloy6HzlEJo-29" style="rounded=0;orthogonalLoop=1;jettySize=auto;html=1;exitX=1;exitY=0;exitDx=0;exitDy=0;entryX=0;entryY=0.5;entryDx=0;entryDy=0;" edge="1" parent="1" source="0HZGXbvApNloy6HzlEJo-8" target="0HZGXbvApNloy6HzlEJo-11">
          <mxGeometry relative="1" as="geometry" />
        </mxCell>
        <mxCell id="0HZGXbvApNloy6HzlEJo-8" value="" style="ellipse;whiteSpace=wrap;html=1;aspect=fixed;" vertex="1" parent="1">
          <mxGeometry x="180" y="450" width="50" height="50" as="geometry" />
        </mxCell>
        <mxCell id="0HZGXbvApNloy6HzlEJo-9" value="" style="ellipse;whiteSpace=wrap;html=1;aspect=fixed;" vertex="1" parent="1">
          <mxGeometry x="530" y="270" width="50" height="50" as="geometry" />
        </mxCell>
        <mxCell id="0HZGXbvApNloy6HzlEJo-33" style="rounded=0;orthogonalLoop=1;jettySize=auto;html=1;exitX=1;exitY=0.5;exitDx=0;exitDy=0;" edge="1" parent="1" source="0HZGXbvApNloy6HzlEJo-10">
          <mxGeometry relative="1" as="geometry">
            <mxPoint x="520" y="300" as="targetPoint" />
          </mxGeometry>
        </mxCell>
        <mxCell id="0HZGXbvApNloy6HzlEJo-10" value="" style="ellipse;whiteSpace=wrap;html=1;aspect=fixed;" vertex="1" parent="1">
          <mxGeometry x="350" y="370" width="50" height="50" as="geometry" />
        </mxCell>
        <mxCell id="0HZGXbvApNloy6HzlEJo-32" style="edgeStyle=orthogonalEdgeStyle;rounded=0;orthogonalLoop=1;jettySize=auto;html=1;exitX=1;exitY=0.5;exitDx=0;exitDy=0;entryX=0;entryY=0.5;entryDx=0;entryDy=0;" edge="1" parent="1" source="0HZGXbvApNloy6HzlEJo-11" target="0HZGXbvApNloy6HzlEJo-9">
          <mxGeometry relative="1" as="geometry" />
        </mxCell>
        <mxCell id="0HZGXbvApNloy6HzlEJo-11" value="" style="ellipse;whiteSpace=wrap;html=1;aspect=fixed;" vertex="1" parent="1">
          <mxGeometry x="350" y="270" width="50" height="50" as="geometry" />
        </mxCell>
        <mxCell id="0HZGXbvApNloy6HzlEJo-12" value="" style="ellipse;whiteSpace=wrap;html=1;aspect=fixed;" vertex="1" parent="1">
          <mxGeometry x="350" y="180" width="50" height="50" as="geometry" />
        </mxCell>
        <mxCell id="0HZGXbvApNloy6HzlEJo-18" style="rounded=0;orthogonalLoop=1;jettySize=auto;html=1;exitX=1;exitY=0.5;exitDx=0;exitDy=0;entryX=0.02;entryY=0.3;entryDx=0;entryDy=0;entryPerimeter=0;" edge="1" parent="1" source="0HZGXbvApNloy6HzlEJo-2" target="0HZGXbvApNloy6HzlEJo-11">
          <mxGeometry relative="1" as="geometry" />
        </mxCell>
        <mxCell id="0HZGXbvApNloy6HzlEJo-19" style="rounded=0;orthogonalLoop=1;jettySize=auto;html=1;exitX=1;exitY=0.5;exitDx=0;exitDy=0;entryX=0;entryY=0.36;entryDx=0;entryDy=0;entryPerimeter=0;" edge="1" parent="1" source="0HZGXbvApNloy6HzlEJo-3" target="0HZGXbvApNloy6HzlEJo-10">
          <mxGeometry relative="1" as="geometry" />
        </mxCell>
        <mxCell id="0HZGXbvApNloy6HzlEJo-23" style="rounded=0;orthogonalLoop=1;jettySize=auto;html=1;exitX=1;exitY=0.5;exitDx=0;exitDy=0;entryX=0.04;entryY=0.32;entryDx=0;entryDy=0;entryPerimeter=0;" edge="1" parent="1" source="0HZGXbvApNloy6HzlEJo-1" target="0HZGXbvApNloy6HzlEJo-11">
          <mxGeometry relative="1" as="geometry" />
        </mxCell>
        <mxCell id="0HZGXbvApNloy6HzlEJo-27" style="rounded=0;orthogonalLoop=1;jettySize=auto;html=1;exitX=1;exitY=0.5;exitDx=0;exitDy=0;entryX=-0.02;entryY=0.3;entryDx=0;entryDy=0;entryPerimeter=0;" edge="1" parent="1" source="0HZGXbvApNloy6HzlEJo-4" target="0HZGXbvApNloy6HzlEJo-11">
          <mxGeometry relative="1" as="geometry" />
        </mxCell>
        <mxCell id="0HZGXbvApNloy6HzlEJo-30" style="rounded=0;orthogonalLoop=1;jettySize=auto;html=1;exitX=1;exitY=0;exitDx=0;exitDy=0;entryX=0;entryY=0.3;entryDx=0;entryDy=0;entryPerimeter=0;" edge="1" parent="1" source="0HZGXbvApNloy6HzlEJo-8" target="0HZGXbvApNloy6HzlEJo-10">
          <mxGeometry relative="1" as="geometry" />
        </mxCell>
        <mxCell id="0HZGXbvApNloy6HzlEJo-31" style="rounded=0;orthogonalLoop=1;jettySize=auto;html=1;exitX=1;exitY=0.5;exitDx=0;exitDy=0;entryX=-0.04;entryY=0.32;entryDx=0;entryDy=0;entryPerimeter=0;" edge="1" parent="1" source="0HZGXbvApNloy6HzlEJo-12" target="0HZGXbvApNloy6HzlEJo-9">
          <mxGeometry relative="1" as="geometry" />
        </mxCell>
        <mxCell id="0HZGXbvApNloy6HzlEJo-35" value="Input layer" style="text;html=1;align=center;verticalAlign=middle;resizable=0;points=[];autosize=1;strokeColor=none;fillColor=none;" vertex="1" parent="1">
          <mxGeometry x="160" y="58" width="80" height="30" as="geometry" />
        </mxCell>
        <mxCell id="0HZGXbvApNloy6HzlEJo-36" value="Hidden layer" style="text;html=1;align=center;verticalAlign=middle;resizable=0;points=[];autosize=1;strokeColor=none;fillColor=none;" vertex="1" parent="1">
          <mxGeometry x="325" y="58" width="90" height="30" as="geometry" />
        </mxCell>
        <mxCell id="0HZGXbvApNloy6HzlEJo-37" value="Output&amp;nbsp;&lt;span data-darkreader-inline-color=&quot;&quot; data-darkreader-inline-bgcolor=&quot;&quot; style=&quot;background-color: initial; color: rgb(0, 0, 0); --darkreader-inline-bgcolor: initial; --darkreader-inline-color: #e8e6e3;&quot;&gt;layer&lt;/span&gt;" style="text;html=1;align=center;verticalAlign=middle;resizable=0;points=[];autosize=1;strokeColor=none;fillColor=none;" vertex="1" parent="1">
          <mxGeometry x="505" y="58" width="90" height="30" as="geometry" />
        </mxCell>
        <mxCell id="0HZGXbvApNloy6HzlEJo-39" value="Max no. of words length" style="text;html=1;align=center;verticalAlign=middle;resizable=0;points=[];autosize=1;strokeColor=none;fillColor=none;" vertex="1" parent="1">
          <mxGeometry x="115" y="518" width="150" height="30" as="geometry" />
        </mxCell>
      </root>
    </mxGraphModel>
  </diagram>
</mxfile>
